#tb 0: 1/90000
#tb 1: 1/22050
0,          0,          0,        0,   192000, 0xdfc2f225
1,          0,          0,      736,     2944, 0x00000000
1,        736,        736,     1472,     5888, 0x5ae3c2a4
0,       6000,       6000,        0,   192000, 0x059b57bd
1,       2208,       2208,     1472,     5888, 0x158fbcb4
0,      12000,      12000,        0,   192000, 0x766cb086
1,       3680,       3680,     1472,     5888, 0x3fc85d35
0,      18000,      18000,        0,   192000, 0x459e3bac
1,       5152,       5152,     1472,     5888, 0x4667ec2b
0,      24000,      24000,        0,   192000, 0x5293e622
1,       6624,       6624,     1472,     5888, 0x82744494
0,      30000,      30000,        0,   192000, 0x898b03f4
1,       8096,       8096,     1472,     5888, 0x3b0cb86f
0,      36000,      36000,        0,   192000, 0xb184a627
1,       9568,       9568,     1472,     5888, 0x29493fbb
0,      42000,      42000,        0,   192000, 0xa3fc650a
1,      11040,      11040,     1472,     5888, 0xaa2d8595
0,      48000,      48000,        0,   192000, 0xea448589
1,      12512,      12512,     1472,     5888, 0x2e563de6
0,      54000,      54000,        0,   192000, 0x700e2b76
1,      13984,      13984,     1472,     5888, 0x225cca99
0,      60000,      60000,        0,   192000, 0xa1a1d66d
1,      15456,      15456,     1472,     5888, 0x2b577599
0,      66000,      66000,        0,   192000, 0xd63bc8a1
1,      16928,      16928,     1472,     5888, 0x3d967f32
0,      72000,      72000,        0,   192000, 0x5f08c023
1,      18400,      18400,     1472,     5888, 0x16639a84
0,      78000,      78000,        0,   192000, 0x8b75ec3b
1,      19872,      19872,     1472,     5888, 0x90549ba0
0,      84000,      84000,        0,   192000, 0x62728ce4
1,      21344,      21344,     1472,     5888, 0xf46e6644
0,      90000,      90000,        0,   192000, 0xaa007941
1,      22816,      22816,     1472,     5888, 0x39a073ec
0,      96000,      96000,        0,   192000, 0x55dc5b3b
1,      24288,      24288,     1472,     5888, 0xb1d7a93a
0,     102000,     102000,        0,   192000, 0x72d836c2
1,      25760,      25760,     1472,     5888, 0x25e9795b
0,     108000,     108000,        0,   192000, 0x1f2de2fc
1,      27232,      27232,     1472,     5888, 0xbbc07644
0,     114000,     114000,        0,   192000, 0xb295dfdb
1,      28704,      28704,     1472,     5888, 0x323f6a1b
0,     120000,     120000,        0,   192000, 0xe5c5f634
1,      30176,      30176,     1472,     5888, 0x7cae130b
0,     126000,     126000,        0,   192000, 0x455a0464
1,      31648,      31648,     1472,     5888, 0xd23bf9c6
0,     132000,     132000,        0,   192000, 0x3bf2340d
1,      33120,      33120,     1472,     5888, 0x5f73ef35
0,     138000,     138000,        0,   192000, 0xe368f0fc
1,      34592,      34592,     1472,     5888, 0xc66026be
0,     144000,     144000,        0,   192000, 0xfa7549c0
1,      36064,      36064,     1472,     5888, 0xc8fdb539
0,     150000,     150000,        0,   192000, 0x4dd76f3d
1,      37536,      37536,     1472,     5888, 0x94c6bfbd
0,     156000,     156000,        0,   192000, 0x50a49f6c
1,      39008,      39008,     1472,     5888, 0xb77e1b83
0,     162000,     162000,        0,   192000, 0xb6072f65
1,      40480,      40480,     1472,     5888, 0x6c6d6693
0,     168000,     168000,        0,   192000, 0x093ce1a8
1,      41952,      41952,     1472,     5888, 0xd9f064d4
0,     174000,     174000,        0,   192000, 0x55afe3db
1,      43424,      43424,     1472,     5888, 0x85dd990d
0,     180000,     180000,        0,   192000, 0x81c3bfab
1,      44896,      44896,     1472,     5888, 0x385e021b
0,     186000,     186000,        0,   192000, 0x583ebd3d
1,      46368,      46368,     1472,     5888, 0xac09fd02
0,     192000,     192000,        0,   192000, 0x2504f003
1,      47840,      47840,     1472,     5888, 0xc6dcdff2
0,     198000,     198000,        0,   192000, 0x44ade2af
1,      49312,      49312,     1472,     5888, 0x86a6944d
0,     204000,     204000,        0,   192000, 0x77cbcfd8
1,      50784,      50784,     1472,     5888, 0x8587b964
0,     210000,     210000,        0,   192000, 0xac7ddfa1
1,      52256,      52256,     1472,     5888, 0x2b0355ff
0,     216000,     216000,        0,   192000, 0x79f7cfe8
1,      53728,      53728,     1472,     5888, 0xe4148a85
0,     222000,     222000,        0,   192000, 0xdf2898fd
1,      55200,      55200,     1472,     5888, 0xdf02ed4f
1,      56672,      56672,     1472,     5888, 0x87a54b15
1,      58144,      58144,     1472,     5888, 0x3ad2be45
1,      59616,      59616,     1472,     5888, 0x3a49c2c3
1,      61088,      61088,     1472,     5888, 0xc2b66404
1,      62560,      62560,     1472,     5888, 0xac3e234a
1,      64032,      64032,     1472,     5888, 0x5dcf523b
1,      65504,      65504,     1472,     5888, 0x2034b5d6
1,      66976,      66976,     1472,     5888, 0x96882832
1,      68448,      68448,     1472,     5888, 0x2be3d534
1,      69920,      69920,     1472,     5888, 0xa841a49d
